<?xml version="1.0" encoding="UTF-8" standalone="no"?>
<!-- Created with Inkscape (http://www.inkscape.org/) -->

<svg
   xmlns:dc="http://purl.org/dc/elements/1.1/"
   xmlns:cc="http://creativecommons.org/ns#"
   xmlns:rdf="http://www.w3.org/1999/02/22-rdf-syntax-ns#"
   xmlns:svg="http://www.w3.org/2000/svg"
   xmlns="http://www.w3.org/2000/svg"
   xmlns:sodipodi="http://sodipodi.sourceforge.net/DTD/sodipodi-0.dtd"
   xmlns:inkscape="http://www.inkscape.org/namespaces/inkscape"
   width="512"
   height="512"
   id="svg2"
   version="1.1"
   inkscape:version="0.48.4 r9939"
   sodipodi:docname="notification.svg"
   inkscape:export-filename="E:\Users\Albert\Desktop\notification.png"
   inkscape:export-xdpi="160"
   inkscape:export-ydpi="160">
  <defs
     id="defs4" />
  <sodipodi:namedview
     id="base"
     pagecolor="#000000"
     bordercolor="#666666"
     borderopacity="1.0"
     inkscape:pageopacity="0"
     inkscape:pageshadow="2"
     inkscape:zoom="1.979899"
     inkscape:cx="227.87337"
     inkscape:cy="161.32387"
     inkscape:document-units="px"
     inkscape:current-layer="layer1"
     showgrid="false"
     units="px"
     inkscape:window-width="1920"
     inkscape:window-height="1018"
     inkscape:window-x="1915"
     inkscape:window-y="35"
     inkscape:window-maximized="1" />
  <metadata
     id="metadata7">
    <rdf:RDF>
      <cc:Work
         rdf:about="">
        <dc:format>image/svg+xml</dc:format>
        <dc:type
           rdf:resource="http://purl.org/dc/dcmitype/StillImage" />
        <dc:title></dc:title>
      </cc:Work>
    </rdf:RDF>
  </metadata>
  <g
     inkscape:label="Ebene 1"
     inkscape:groupmode="layer"
     id="layer1"
     transform="translate(0,-540.36219)">
    <path
       style="fill:#000000;stroke:#ffffff;stroke-opacity:1;stroke-width:8;stroke-miterlimit:4;stroke-dasharray:none"
       d="m -0.31618494,795.1782 0,-254.75435 256.70142494,-0.50508 256.70141,0 0,255.25943 0,258.29 -256.70141,0 -256.70142494,0.505 z M 291.23764,1028.5203 c 51.56971,-7.0923 97.176,-29.4293 134.04774,-65.6539 38.64028,-37.96212 61.93277,-85.5559 68.81691,-140.61431 1.63134,-13.04709 1.6333,-40.48471 0.004,-53.81351 -8.53529,-69.81902 -45.41875,-129.80185 -104.00832,-169.1466 -31.11473,-20.89452 -70.94025,-34.85302 -108.57866,-38.05587 -10.30392,-0.87681 -32.53694,-0.87979 -42.89528,-0.006 -37.99795,3.2063 -76.65713,16.7831 -108.91378,38.24962 -51.926957,34.55695 -88.173962,88.22578 -100.494242,148.79599 -2.879268,14.15534 -4.139215,25.89358 -4.532072,42.22279 -1.772479,73.67349 30.775416,142.83409 89.054704,189.23126 33.077,26.33313 73.01889,43.22153 115.19061,48.70533 14.56236,1.8935 15.07834,1.9188 34.49361,1.7053 13.25356,-0.1458 19.91374,-0.5337 27.81491,-1.6204 z m -49.59767,-2.4916 c -10.24502,-1.0195 -21.26712,-2.6367 -29.37137,-4.3092 C 157.35842,1010.3869 107.47475,978.5177 73.662697,933.16828 33.304373,879.03884 18.718926,810.11217 33.592581,743.80833 45.551239,690.49899 77.354902,641.98152 121.94715,609.02072 c 24.56076,-18.15432 51.67302,-30.94765 81.5055,-38.45956 20.78223,-5.23301 37.48442,-6.97915 62.13477,-6.49589 19.07889,0.37402 28.71898,1.44335 44.41692,4.92695 47.85402,10.61947 91.6808,36.28788 123.5208,72.3435 32.35154,36.63487 51.3222,79.02092 57.18641,127.77134 1.59616,13.26913 1.59588,38.87714 -5.6e-4,52.14229 -6.3899,53.09538 -29.27376,100.31074 -66.75353,137.72996 -38.32558,38.26364 -89.23259,61.97219 -143.44364,66.80509 -7.06873,0.63 -33.33734,0.7951 -38.87385,0.2443 z m 73.52176,-145.34903 c 11.63535,-5.60832 16.17281,-22.69309 7.94142,-29.90151 -4.55074,-3.98517 -13.12845,-4.18922 -19.50184,-0.4639 -8.42793,4.92623 -13.37357,16.97297 -10.10039,24.60296 2.98848,6.96631 13.41084,9.73897 21.66081,5.76245 z m -115.44251,-0.66578 c 2.91735,-2.55479 4.24532,-6.57619 7.11046,-21.53217 5.3093,-27.71437 12.39346,-49.84286 22.05743,-68.89968 7.69344,-15.17105 16.52128,-26.17411 20.61896,-25.69958 5.75223,0.66614 4.40874,10.57845 -6.18982,45.66829 -8.86599,29.35362 -11.4543,41.50698 -10.93424,51.34154 0.49258,9.31512 4.21324,15.56227 11.40259,19.14546 3.4318,1.71042 4.8876,2.04427 8.91432,2.04427 4.02308,0 5.48331,-0.33423 8.90011,-2.03718 10.31168,-5.13938 19.57877,-19.13448 28.60706,-43.20217 4.08961,-10.90217 4.56848,-14.42049 2.01236,-14.78551 -0.76165,-0.10877 -1.98863,0.48218 -2.77592,1.33698 -0.776,0.84256 -4.97819,8.388 -9.33816,16.76768 -10.569,20.31307 -15.90229,27.2134 -21.03343,27.2134 -3.09668,0 -4.37587,-2.17987 -4.26118,-7.26162 0.12587,-5.57864 2.12276,-13.33436 8.97373,-34.8533 12.21169,-38.35702 14.99707,-55.74536 10.73059,-66.98795 -1.71119,-4.50914 -6.4764,-9.1991 -10.59817,-10.43078 -4.16004,-1.24313 -10.7589,-0.97262 -14.19456,0.5819 -6.50745,2.94439 -13.67619,10.77717 -20.23086,22.10481 -1.97648,3.4157 -3.68429,5.74062 -3.79514,5.16646 -0.29596,-1.53278 6.56041,-28.34179 12.36605,-48.3523 6.53897,-22.53809 6.8903,-25.98777 3.10383,-30.476 -4.93183,-5.84586 -15.71956,-6.18735 -19.73956,-0.62489 -2.90296,4.01681 -16.07438,55.53199 -25.31055,98.99299 -7.50979,35.33753 -12.18962,63.0784 -12.34641,73.18679 -0.0951,6.12744 0.0415,6.94129 1.53057,9.11372 2.29575,3.34955 4.48672,4.50844 8.56287,4.52918 2.96531,0.0152 3.8536,-0.29586 5.85707,-2.05034 z"
       id="path3818"
       inkscape:connector-curvature="0"
       sodipodi:nodetypes="ccccccccccssssscssssssccccssssssssssccssssssssssssssssssssssssscsssssccs" />
  </g>
</svg>
